<?xml version="1.0" encoding="utf-8"?>
<!-- Generator: Adobe Illustrator 16.0.0, SVG Export Plug-In . SVG Version: 6.00 Build 0)  -->
<!DOCTYPE svg PUBLIC "-//W3C//DTD SVG 1.1//EN" "http://www.w3.org/Graphics/SVG/1.1/DTD/svg11.dtd">
<svg version="1.1" id="图层_1" xmlns="http://www.w3.org/2000/svg" xmlns:xlink="http://www.w3.org/1999/xlink" x="0px" y="0px"
	 width="448px" height="153px" viewBox="0 0 448 153" enable-background="new 0 0 448 153" xml:space="preserve">
<g>
	<g>
		<line fill="none" stroke="#231815" stroke-miterlimit="10" x1="275.753" y1="103.004" x2="275.753" y2="125.44"/>
		<line fill="none" stroke="#231815" stroke-miterlimit="10" x1="275.753" y1="125.44" x2="316.997" y2="125.44"/>
		
			<path id="path2844_1_" sodipodi:nodetypes="cssssssc" fill="none" stroke="#136AAA" stroke-width="1.5" stroke-miterlimit="10" d="
			M309.426,123.796c-5.058-0.021-5.604-0.43-6.295-0.817c-2.76-1.542-3.573-4.195-5.146-8.197
			c-1.727-4.396-2.919-10.135-5.03-10.135c-1.711,0-3.037,5.565-4.765,9.961c-1.571,4.002-2.509,6.859-5.267,8.401
			c-0.711,0.397-1.412,0.787-6.86,0.787"/>
		
			<path id="path2844_2_" sodipodi:nodetypes="cssssssc" fill="none" stroke="#D93830" stroke-width="1.5" stroke-miterlimit="10" d="
			M316.677,123.796c-5.057-0.021-5.604-0.43-6.296-0.817c-2.759-1.542-3.571-4.195-5.144-8.197
			c-1.728-4.396-2.919-10.135-5.031-10.135c-1.711,0-3.037,5.565-4.764,9.961c-1.572,4.002-2.509,6.859-5.268,8.401
			c-0.71,0.397-1.412,0.787-6.859,0.787"/>
	</g>
	<text transform="matrix(1 0 0 1 289.1934 116.4678)" fill="#136AAA" font-family="'ArialMT'" font-size="3.0406">G1</text>
	<text transform="matrix(1 0 0 1 300.5088 116.4678)" fill="#D93830" font-family="'ArialMT'" font-size="3.0406">G2</text>
</g>
<text transform="matrix(1 0 0 1 247.7539 97.7031)" font-family="'Arial-ItalicMT'" font-size="6">II. Statistical test</text>
<text transform="matrix(1 0 0 1 247.7539 52.5898)" font-family="'Arial-ItalicMT'" font-size="6">I. HMM</text>
<text transform="matrix(1 0 0 1 356.4082 81.8882)" font-family="'ArialMT'" font-size="6">HMM</text>
<text transform="matrix(1 0 0 1 359.7324 90.4194)" font-family="'ArialMT'" font-size="6">Test</text>
<text transform="matrix(1 0 0 1 168.2354 80.5522)" font-family="'ArialMT'" font-size="6">refUMRs</text>
<text transform="matrix(1 0 0 1 108.7056 112.6304)" font-family="'Arial-ItalicMT'" font-size="6">refUMR</text>
<text transform="matrix(0.583 0 0 0.583 129.3716 114.6284)" font-family="'Arial-ItalicMT'" font-size="6">1</text>
<text transform="matrix(1 0 0 1 108.7056 128.3052)" font-family="'Arial-ItalicMT'" font-size="6">refUMR</text>
<text transform="matrix(0.583 0 0 0.583 129.3716 130.3032)" font-family="'Arial-ItalicMT'" font-size="6">m</text>
<text transform="matrix(1 0 0 1 347.0703 68.7319)" font-family="'ArialMT'" font-size="6">refUMRs</text>
<text transform="matrix(1 0 0 1 357.4893 108.0059)" font-family="'ArialMT'" font-size="6">Hypermethylated regions</text>
<text transform="matrix(1 0 0 1 161.5688 64.5024)" font-family="'ArialMT'" font-size="6">UMR frequency</text>
<text transform="matrix(1 0 0 1 170.2002 42.7729)" font-family="'ArialMT'" font-size="6">UMRs</text>
<text transform="matrix(1 0 0 1 122.3838 94.3657)" font-family="'ArialMT'" font-size="6">methylation matrix</text>
<text transform="matrix(1 0 0 1 47.0352 33.2637)"><tspan x="0" y="0" font-family="'ArialMT'" font-size="6">Normal</tspan><tspan x="-6.504" y="7.2" font-family="'ArialMT'" font-size="6">methylomes</tspan></text>
<text transform="matrix(1 0 0 1 146.9463 100.7588)" fill="#2EA7E0" font-family="'Arial-ItalicMT'" font-size="6">N</text>
<text transform="matrix(1 0 0 1 33.0347 35.3354)" fill="#2EA7E0" font-family="'Arial-ItalicMT'" font-size="6">N</text>
<text transform="matrix(1 0 0 1 169.0337 100.7588)" fill="#E83828" font-family="'Arial-ItalicMT'" font-size="6">C</text>
<text transform="matrix(1 0 0 1 33.0347 92.4194)" fill="#E83828" font-family="'Arial-ItalicMT'" font-size="6">C</text>
<text transform="matrix(1 0 0 1 20.9766 23.5005)" font-family="'ArialMT'" font-size="8">Methylation Profiles</text>
<text transform="matrix(1 0 0 1 117.7739 23.5005)" font-family="'ArialMT'" font-size="8">Identification of refUMRs</text>
<text transform="matrix(1 0 0 1 242.4766 23.5005)"><tspan x="0" y="0" font-family="'ArialMT'" font-size="8">Determine CpG </tspan><tspan x="-1.34" y="9.6" font-family="'ArialMT'" font-size="8">methylation state</tspan></text>
<text transform="matrix(1 0 0 1 359.9941 23.5005)"><tspan x="0" y="0" font-family="'ArialMT'" font-size="8">Identification of </tspan><tspan x="-15.785" y="9.6" font-family="'ArialMT'" font-size="8">hypermethylated regions</tspan></text>
<text transform="matrix(1 0 0 1 46.395 89.4194)"><tspan x="0" y="0" font-family="'ArialMT'" font-size="6">Cancer</tspan><tspan x="-6.501" y="7.2" font-family="'ArialMT'" font-size="6">methylomes</tspan></text>
<g>
	<g>
		<line fill="none" stroke="#231815" stroke-width="2" stroke-miterlimit="10" x1="88.5" y1="81.591" x2="99.01" y2="81.591"/>
		<g>
			<polygon fill="#231815" points="96.763,84.554 98.021,81.591 96.763,78.629 103.786,81.591 			"/>
		</g>
	</g>
</g>
<g>
	<g>
		<line fill="none" stroke="#231815" stroke-width="2" stroke-miterlimit="10" x1="218.5" y1="81.591" x2="229.01" y2="81.591"/>
		<g>
			<polygon fill="#231815" points="226.763,84.554 228.021,81.591 226.763,78.629 233.785,81.591 			"/>
		</g>
	</g>
</g>
<g>
	<g>
		<line fill="none" stroke="#231815" stroke-width="2" stroke-miterlimit="10" x1="329.07" y1="81.591" x2="339.58" y2="81.591"/>
		<g>
			<polygon fill="#231815" points="337.333,84.554 338.592,81.591 337.333,78.629 344.355,81.591 			"/>
		</g>
	</g>
</g>
<g>
	<g>
		<rect x="279.059" y="76.523" fill="#595757" width="11.321" height="4.73"/>
		<rect x="302.157" y="76.523" fill="#FF2D29" width="11.321" height="4.73"/>
		<line fill="none" stroke="#231815" stroke-miterlimit="10" x1="275.522" y1="81.391" x2="315.911" y2="81.391"/>
		<g>
			<g>
				<line fill="none" stroke="#231815" stroke-miterlimit="10" x1="293.679" y1="78.888" x2="297.27" y2="78.888"/>
				<g>
					<polygon fill="#231815" points="295.865,80.739 296.652,78.888 295.865,77.036 300.255,78.888 					"/>
				</g>
			</g>
		</g>
	</g>
	<polyline fill="none" stroke="#FF2D29" stroke-miterlimit="10" points="288.967,66.845 289.312,66.843 289.658,66.84 
		290.003,66.835 290.348,66.83 290.694,66.821 291.039,66.81 291.385,66.796 291.729,66.776 292.074,66.751 292.421,66.721 
		292.766,66.682 293.112,66.633 293.457,66.572 293.802,66.499 294.148,66.41 294.493,66.304 294.84,66.18 295.185,66.036 
		295.529,65.872 295.876,65.685 296.221,65.476 296.566,65.246 296.911,64.996 297.256,64.729 297.603,64.448 297.947,64.156 
		298.294,63.858 298.639,63.562 298.983,63.271 299.33,62.993 299.675,62.735 300.02,62.504 300.366,62.305 300.711,62.144 
		301.058,62.026 301.402,61.954 301.748,61.93 302.093,61.956 302.438,62.03 302.784,62.149 303.129,62.312 303.476,62.512 
		303.82,62.744 304.165,63.003 304.512,63.281 304.856,63.572 305.201,63.869 305.548,64.167 305.893,64.458 306.239,64.739 
		306.584,65.006 306.929,65.254 307.274,65.484 307.619,65.691 307.966,65.878 308.311,66.042 308.655,66.186 309.002,66.309 
		309.347,66.413 309.693,66.501 310.038,66.575 310.383,66.635 310.729,66.683 311.074,66.722 311.42,66.753 311.766,66.777 
		312.109,66.796 312.456,66.811 312.801,66.821 313.147,66.83 313.492,66.835 313.837,66.84 314.184,66.843 314.528,66.846 
		314.873,66.848 315.22,66.849 315.564,66.849 315.911,66.85 	"/>
	
		<line fill="none" stroke="#000000" stroke-width="0.75" stroke-linecap="round" stroke-linejoin="round" stroke-miterlimit="10" x1="283.488" y1="66.942" x2="283.488" y2="67.36"/>
	
		<line fill="none" stroke="#000000" stroke-width="0.75" stroke-linecap="round" stroke-linejoin="round" stroke-miterlimit="10" x1="295.917" y1="66.942" x2="295.917" y2="67.36"/>
	
		<line fill="none" stroke="#000000" stroke-width="0.75" stroke-linecap="round" stroke-linejoin="round" stroke-miterlimit="10" x1="308.345" y1="66.942" x2="308.345" y2="67.36"/>
	<polyline fill="none" stroke="#595757" stroke-linecap="round" stroke-linejoin="round" stroke-miterlimit="10" points="
		286.232,66.85 286.577,66.85 286.924,66.85 287.269,66.848 287.613,66.848 287.959,66.846 288.304,66.842 288.65,66.837 
		288.995,66.829 289.342,66.816 289.687,66.796 290.031,66.767 290.378,66.724 290.723,66.662 291.067,66.576 291.414,66.459 
		291.759,66.303 292.105,66.1 292.45,65.844 292.795,65.526 293.141,65.146 293.485,64.7 293.832,64.192 294.177,63.632 
		294.521,63.035 294.868,62.418 295.213,61.809 295.56,61.232 295.904,60.717 296.249,60.293 296.596,59.983 296.94,59.805 
		297.285,59.771 297.631,59.882 297.977,60.132 298.322,60.506 298.667,60.981 299.014,61.532 299.358,62.13 299.703,62.747 
		300.05,63.356 300.395,63.936 300.741,64.468 301.086,64.944 301.431,65.356 301.777,65.703 302.122,65.987 302.467,66.214 
		302.813,66.391 303.157,66.525 303.504,66.625 303.849,66.697 304.193,66.749 304.54,66.784 304.885,66.808 305.231,66.824 
		305.576,66.834 305.921,66.84 306.268,66.844 306.612,66.847 306.959,66.848 307.304,66.849 	"/>
	<polyline fill="none" stroke="#0F70B7" stroke-miterlimit="10" points="286.232,66.752 286.577,66.592 286.924,66.221 
		287.269,65.466 287.613,64.125 287.959,62.055 288.304,59.32 288.65,56.297 288.995,53.652 289.342,52.123 289.687,52.188 
		290.031,53.826 290.378,56.527 290.723,59.549 291.067,62.242 291.414,64.253 291.759,65.543 292.105,66.26 292.45,66.609 
		292.795,66.76 293.173,66.782 	"/>
	
		<line fill="none" stroke="#231815" stroke-linecap="round" stroke-linejoin="round" stroke-miterlimit="10" x1="276.819" y1="66.85" x2="315.911" y2="66.85"/>
	<text transform="matrix(0.7628 0 0 1 294.541 73.5854)" font-family="'ArialMT'" font-size="5.487">0</text>
	<text transform="matrix(0.7628 0 0 1 279.834 73.5854)" font-family="'ArialMT'" font-size="5.487">-0.5</text>
	<text transform="matrix(0.7628 0 0 1 305.4775 73.5854)" font-family="'ArialMT'" font-size="5.487">0.5</text>
	
		<line fill="none" stroke="#231815" stroke-linecap="round" stroke-linejoin="round" stroke-miterlimit="10" x1="295.917" y1="67.521" x2="295.917" y2="54.996"/>
</g>
<g>
	<text transform="matrix(1 0 0 1 247.2832 63.6167)" fill="#FF2D29" font-family="'ArialMT'" font-size="5.7685">S</text>
	<text transform="matrix(0.583 0 0 0.583 251.1309 65.5376)" fill="#FF2D29" font-family="'ArialMT'" font-size="5.7685">1</text>
	<text transform="matrix(1 0 0 1 253.001 63.6167)" fill="#FF2D29" font-family="'ArialMT'" font-size="5.7685">: Hyper</text>
	<text transform="matrix(1 0 0 1 247.2832 70.625)" fill="#595757" font-family="'ArialMT'" font-size="5.7685">S</text>
	<text transform="matrix(0.583 0 0 0.583 251.1309 72.5459)" fill="#595757" font-family="'ArialMT'" font-size="5.7685">2</text>
	<text transform="matrix(1 0 0 1 253.001 70.625)" fill="#595757" font-family="'ArialMT'" font-size="5.7685">: No diff</text>
	<text transform="matrix(1 0 0 1 247.2832 77.6333)" fill="#136AAA" font-family="'ArialMT'" font-size="5.7685">S</text>
	<text transform="matrix(0.583 0 0 0.583 251.1309 79.5542)" fill="#136AAA" font-family="'ArialMT'" font-size="5.7685">3</text>
	<text transform="matrix(1 0 0 1 253.001 77.6333)" fill="#136AAA" font-family="'ArialMT'" font-size="5.7685">: Hypo</text>
	<text transform="matrix(0.1898 0 0 0.583 244.5234 73.499)" fill="#231815" font-family="'ArialMT'" font-size="29.4769">{</text>
</g>
<text transform="matrix(1 0 0 1 248.6631 107.2139)" fill="#FF2D29" font-family="'ArialMT'" font-size="5.7685">H: Hyper</text>
<text transform="matrix(1 0 0 1 248.6631 114.2222)" fill="#595757" font-family="'ArialMT'" font-size="5.7685">N: NS</text>
<text transform="matrix(1 0 0 1 248.6631 121.2305)" fill="#136AAA" font-family="'ArialMT'" font-size="5.7685">H: Hypo</text>
<text transform="matrix(0.1898 0 0 0.583 245.9033 117.0962)" fill="#231815" font-family="'ArialMT'" font-size="29.4769">{</text>
<rect x="128.694" y="75.125" fill="#601986" width="35.076" height="3.214"/>
<rect x="128.852" y="36.989" fill="#0F70B7" width="34.761" height="2.235"/>
<rect x="128.852" y="31.003" fill="#0F70B7" width="32.717" height="2.235"/>
<rect x="125.384" y="52.572" fill="#0F70B7" width="37.96" height="2.235"/>
<rect x="128.826" y="42.773" fill="#0F70B7" width="7.955" height="2.235"/>
<rect x="138.113" y="42.773" fill="#0F70B7" width="25.789" height="2.235"/>
<text transform="matrix(1 0 0 1 187.0864 98.9531)"><tspan x="0" y="0" font-family="'ArialMT'" font-size="6">remove </tspan><tspan x="0" y="7.2" font-family="'ArialMT'" font-size="6">heterogeneous</tspan><tspan x="0" y="14.4" font-family="'ArialMT'" font-size="6">refUMRs</tspan></text>
<g opacity="0.8">
	<g>
		<line fill="none" stroke="#E60012" stroke-miterlimit="10" x1="177.825" y1="82.873" x2="178.432" y2="83.668"/>
		<polyline fill="none" stroke="#E60012" stroke-miterlimit="10" stroke-dasharray="2.0896,2.0896" points="179.699,85.33 
			180.645,86.569 184.134,91.146 		"/>
		<line fill="none" stroke="#E60012" stroke-miterlimit="10" x1="184.768" y1="91.976" x2="185.374" y2="92.771"/>
		<g>
			<polygon fill="#E60012" points="187.086,95.017 183.38,92.838 185.246,92.604 185.966,90.867 			"/>
		</g>
	</g>
</g>
<g>
	<g>
		<text transform="matrix(1 0 0 1 23.6548 70.0708)" fill="#0F70B7" font-family="'ArialMT'" font-size="6">s</text>
		<text transform="matrix(0.583 0 0 0.583 26.6548 72.0688)" fill="#0F70B7" font-family="'ArialMT'" font-size="6">1</text>
	</g>
	<g>
		<text transform="matrix(1 0 0 1 27.9824 75.125)" fill="#0F70B7" font-family="'ArialMT'" font-size="6">s</text>
		<text transform="matrix(0.583 0 0 0.583 30.9824 77.123)" fill="#0F70B7" font-family="'ArialMT'" font-size="6">2</text>
	</g>
	<g>
		<text transform="matrix(1 0 0 1 38.6392 81.2534)" fill="#0F70B7" font-family="'ArialMT'" font-size="6">s</text>
		<text transform="matrix(0.583 0 0 0.583 41.6392 83.2515)" fill="#0F70B7" font-family="'ArialMT'" font-size="6">n</text>
	</g>
	<g>
		<text transform="matrix(1 0 0 1 34.5396 77.125)" fill="#0F70B7" font-family="'ArialMT'" font-size="6">...</text>
	</g>
</g>
<g>
	<text transform="matrix(1 0 0 1 117.5273 33.2388)" fill="#0F70B7" font-family="'ArialMT'" font-size="6">s</text>
	<text transform="matrix(0.583 0 0 0.583 120.5273 35.2368)" fill="#0F70B7" font-family="'ArialMT'" font-size="6">1</text>
</g>
<g>
	<text transform="matrix(1 0 0 1 117.5273 38.6108)" fill="#0F70B7" font-family="'ArialMT'" font-size="6">s</text>
	<text transform="matrix(0.583 0 0 0.583 120.5273 40.6089)" fill="#0F70B7" font-family="'ArialMT'" font-size="6">2</text>
</g>
<g>
	<text transform="matrix(1 0 0 1 117.5273 44.2139)" fill="#0F70B7" font-family="'ArialMT'" font-size="6">s</text>
	<text transform="matrix(0.583 0 0 0.583 120.5273 46.2119)" fill="#0F70B7" font-family="'ArialMT'" font-size="6">3</text>
</g>
<g>
	<text transform="matrix(1 0 0 1 117.5273 53.6899)" fill="#0F70B7" font-family="'ArialMT'" font-size="6">s</text>
	<text transform="matrix(0.583 0 0 0.583 120.5273 55.688)" fill="#0F70B7" font-family="'ArialMT'" font-size="6">n</text>
</g>
<g>
	<text transform="matrix(1 0 0 1 117.4995 48.7759)" fill="#0F70B7" font-family="'ArialMT'" font-size="6">...</text>
</g>
<rect x="30.455" y="42.66" opacity="0.8" fill="#2EA7E0" stroke="#231815" stroke-miterlimit="10" width="33.029" height="26.556"/>
<rect x="35.366" y="45.869" opacity="0.8" fill="#2EA7E0" stroke="#231815" stroke-miterlimit="10" width="33.03" height="26.556"/>
<rect x="44.429" y="51.312" opacity="0.8" fill="#2EA7E0" stroke="#231815" stroke-miterlimit="10" width="33.03" height="26.556"/>
<g>
	<g>
		<text transform="matrix(1 0 0 1 23.7427 125.4199)" fill="#E83828" font-family="'ArialMT'" font-size="6">s</text>
		<text transform="matrix(0.583 0 0 0.583 26.7427 127.418)" fill="#E83828" font-family="'ArialMT'" font-size="6">1</text>
	</g>
	<g>
		<text transform="matrix(1 0 0 1 28.0703 130.4741)" fill="#E83828" font-family="'ArialMT'" font-size="6">s</text>
		<text transform="matrix(0.583 0 0 0.583 31.0703 132.4722)" fill="#E83828" font-family="'ArialMT'" font-size="6">2</text>
	</g>
	<g>
		<text transform="matrix(1 0 0 1 38.2427 136.6025)" fill="#E83828" font-family="'ArialMT'" font-size="6">s</text>
		<text transform="matrix(0.583 0 0 0.583 41.2427 138.6006)" fill="#E83828" font-family="'ArialMT'" font-size="6">m</text>
	</g>
	<g>
		<text transform="matrix(1 0 0 1 34.6274 132.4741)" fill="#E83828" font-family="'ArialMT'" font-size="6">...</text>
	</g>
</g>
<text transform="matrix(1 0 0 1 133.9448 48.9268)" fill="#036EB8" font-family="'ArialMT'" font-size="12">... ...</text>
<text transform="matrix(1 0 0 1 145.6948 119.5225)" fill="#727171" font-family="'ArialMT'" font-size="12">...   ...</text>
<path id="path2844_3_" sodipodi:nodetypes="cssssssc" fill="#2EA7E0" stroke="#231815" stroke-width="0.5" stroke-miterlimit="10" d="
	M175.95,71.141c-9.602-0.015-10.64-0.308-11.952-0.585c-5.239-1.105-6.783-3.005-9.767-5.872c-3.278-3.149-5.541-7.261-9.549-7.261
	c-3.249,0-5.766,3.987-9.045,7.137c-2.983,2.867-4.762,4.914-9.999,6.019c-1.347,0.285-2.68,0.564-13.021,0.564"/>
<line fill="none" stroke="#231815" stroke-width="0.5" stroke-miterlimit="10" x1="111.616" y1="72.732" x2="177.667" y2="72.732"/>
<line fill="none" stroke="#231815" stroke-width="0.5" stroke-miterlimit="10" x1="128.694" y1="78.338" x2="128.694" y2="69.167"/>
<line fill="none" stroke="#231815" stroke-width="0.5" stroke-miterlimit="10" x1="163.344" y1="78.338" x2="163.344" y2="69.167"/>
<g>
	<circle fill="none" stroke="#231815" stroke-width="0.5" stroke-miterlimit="10" cx="377.671" cy="55.011" r="1.56"/>
	<line fill="none" stroke="#231815" stroke-width="0.5" stroke-miterlimit="10" x1="377.67" y1="56.569" x2="377.67" y2="60.099"/>
</g>
<g>
	<circle fill="none" stroke="#231815" stroke-width="0.5" stroke-miterlimit="10" cx="382.895" cy="55.011" r="1.56"/>
	
		<line fill="none" stroke="#231815" stroke-width="0.5" stroke-miterlimit="10" x1="382.894" y1="56.569" x2="382.894" y2="60.099"/>
</g>
<g>
	<circle fill="none" stroke="#231815" stroke-width="0.5" stroke-miterlimit="10" cx="388.118" cy="55.011" r="1.559"/>
	
		<line fill="none" stroke="#231815" stroke-width="0.5" stroke-miterlimit="10" x1="388.117" y1="56.569" x2="388.117" y2="60.099"/>
</g>
<g>
	<circle fill="none" stroke="#231815" stroke-width="0.5" stroke-miterlimit="10" cx="393.341" cy="55.011" r="1.559"/>
	
		<line fill="none" stroke="#231815" stroke-width="0.5" stroke-miterlimit="10" x1="393.341" y1="56.569" x2="393.341" y2="60.099"/>
</g>
<g>
	<circle fill="none" stroke="#231815" stroke-width="0.5" stroke-miterlimit="10" cx="398.565" cy="55.011" r="1.559"/>
	
		<line fill="none" stroke="#231815" stroke-width="0.5" stroke-miterlimit="10" x1="398.564" y1="56.569" x2="398.564" y2="60.099"/>
</g>
<g>
	<circle fill="none" stroke="#231815" stroke-width="0.5" stroke-miterlimit="10" cx="403.789" cy="55.011" r="1.56"/>
	
		<line fill="none" stroke="#231815" stroke-width="0.5" stroke-miterlimit="10" x1="403.788" y1="56.569" x2="403.788" y2="60.099"/>
</g>
<g>
	<circle fill="none" stroke="#231815" stroke-width="0.5" stroke-miterlimit="10" cx="409.012" cy="55.011" r="1.559"/>
	
		<line fill="none" stroke="#231815" stroke-width="0.5" stroke-miterlimit="10" x1="409.012" y1="56.569" x2="409.012" y2="60.099"/>
</g>
<g>
	<circle fill="none" stroke="#898989" stroke-width="0.5" stroke-miterlimit="10" cx="414.235" cy="55.011" r="1.559"/>
	
		<line fill="none" stroke="#898989" stroke-width="0.5" stroke-miterlimit="10" x1="414.234" y1="56.569" x2="414.234" y2="60.099"/>
</g>
<g>
	<circle fill="none" stroke="#898989" stroke-width="0.5" stroke-miterlimit="10" cx="419.362" cy="55.011" r="1.56"/>
	
		<line fill="none" stroke="#898989" stroke-width="0.5" stroke-miterlimit="10" x1="419.361" y1="56.569" x2="419.361" y2="60.099"/>
</g>
<g>
	<circle fill="none" stroke="#898989" stroke-width="0.5" stroke-miterlimit="10" cx="367.225" cy="55.011" r="1.56"/>
	
		<line fill="none" stroke="#898989" stroke-width="0.5" stroke-miterlimit="10" x1="367.224" y1="56.569" x2="367.224" y2="60.099"/>
</g>
<g>
	<circle fill="none" stroke="#898989" stroke-width="0.5" stroke-miterlimit="10" cx="372.448" cy="55.011" r="1.559"/>
	
		<line fill="none" stroke="#898989" stroke-width="0.5" stroke-miterlimit="10" x1="372.447" y1="56.569" x2="372.447" y2="60.099"/>
</g>
<rect x="374.859" y="64.979" fill="#601986" stroke="#231815" stroke-width="0.5" stroke-miterlimit="10" width="35.076" height="3.214"/>
<rect x="374.859" y="96.152" fill="#FF2D29" stroke="#231815" stroke-width="0.5" stroke-miterlimit="10" width="25.265" height="3.214"/>
<text transform="matrix(1 0 0 1 374.8594 81.4644)" fill="#FF2D29" font-family="'ArialMT'" font-size="5.3">S</text>
<text transform="matrix(0.583 0 0 0.583 378.3945 83.2295)" fill="#FF2D29" font-family="'ArialMT'" font-size="5.3">1</text>
<text transform="matrix(1 0 0 1 380.1133 81.4644)" fill="#FF2D29" font-family="'ArialMT'" font-size="5.3">S</text>
<text transform="matrix(0.583 0 0 0.583 383.6475 83.2295)" fill="#FF2D29" font-family="'ArialMT'" font-size="5.3">1</text>
<text transform="matrix(1 0 0 1 385.3662 81.4644)" fill="#FF2D29" font-family="'ArialMT'" font-size="5.3">S</text>
<text transform="matrix(0.583 0 0 0.583 388.9014 83.2295)" fill="#FF2D29" font-family="'ArialMT'" font-size="5.3">1</text>
<text transform="matrix(1 0 0 1 390.6201 81.4644)" fill="#595757" font-family="'ArialMT'" font-size="5.3">S</text>
<text transform="matrix(0.583 0 0 0.583 394.1553 83.2295)" fill="#595757" font-family="'ArialMT'" font-size="5.3">2</text>
<text transform="matrix(1 0 0 1 395.873 81.4644)" fill="#FF2D29" font-family="'ArialMT'" font-size="5.3">S</text>
<text transform="matrix(0.583 0 0 0.583 399.4082 83.2295)" fill="#FF2D29" font-family="'ArialMT'" font-size="5.3">1</text>
<text transform="matrix(1 0 0 1 401.127 81.4644)" fill="#595757" font-family="'ArialMT'" font-size="5.3">S</text>
<text transform="matrix(0.583 0 0 0.583 404.6621 83.2295)" fill="#595757" font-family="'ArialMT'" font-size="5.3">2</text>
<text transform="matrix(1 0 0 1 406.3799 81.4644)" fill="#595757" font-family="'ArialMT'" font-size="5.3">S</text>
<text transform="matrix(0.583 0 0 0.583 409.915 83.2295)" fill="#595757" font-family="'ArialMT'" font-size="5.3">2</text>
<text transform="matrix(1 0 0 1 374.8594 90.3164)"><tspan x="0" y="0" fill="#FF2D29" font-family="'ArialMT'" font-size="5.3">H</tspan><tspan x="3.827" y="0" font-family="'ArialMT'" font-size="5.3"> </tspan><tspan x="5.3" y="0" fill="#FF2D29" font-family="'ArialMT'" font-size="5.3">H </tspan><tspan x="10.6" y="0" fill="#595757" font-family="'ArialMT'" font-size="5.3">N</tspan><tspan x="14.428" y="0" font-family="'ArialMT'" font-size="5.3"> </tspan><tspan x="15.9" y="0" fill="#FF2D29" font-family="'ArialMT'" font-size="5.3">H</tspan><tspan x="19.728" y="0" font-family="'ArialMT'" font-size="5.3"> </tspan><tspan x="21.2" y="0" fill="#FF2D29" font-family="'ArialMT'" font-size="5.3">H</tspan><tspan x="25.027" y="0" font-family="'ArialMT'" font-size="5.3"> </tspan><tspan x="26.5" y="0" fill="#595757" font-family="'ArialMT'" font-size="5.3">N N</tspan></text>
<line fill="none" stroke="#898989" stroke-width="0.5" stroke-miterlimit="10" stroke-dasharray="1" x1="374.859" y1="59.927" x2="374.859" y2="96.152"/>
<line fill="none" stroke="#898989" stroke-width="0.5" stroke-miterlimit="10" stroke-dasharray="1" x1="400.124" y1="59.927" x2="400.124" y2="96.152"/>
<line fill="none" stroke="#231815" stroke-miterlimit="10" x1="363.75" y1="60.099" x2="422.25" y2="60.099"/>
<g>
	
		<line fill="none" stroke="#898989" stroke-width="0.5" stroke-miterlimit="10" x1="139.932" y1="115.306" x2="181.054" y2="115.306"/>
	
		<line fill="none" stroke="#898989" stroke-width="0.5" stroke-miterlimit="10" x1="139.932" y1="105.264" x2="181.054" y2="105.264"/>
	
		<line fill="none" stroke="#898989" stroke-width="0.5" stroke-miterlimit="10" x1="139.932" y1="115.306" x2="139.932" y2="105.264"/>
	
		<line fill="none" stroke="#898989" stroke-width="0.5" stroke-miterlimit="10" x1="146.786" y1="115.306" x2="146.786" y2="105.264"/>
	
		<line fill="none" stroke="#898989" stroke-width="0.5" stroke-miterlimit="10" x1="153.639" y1="115.306" x2="153.639" y2="105.264"/>
	
		<line fill="none" stroke="#898989" stroke-width="0.5" stroke-miterlimit="10" x1="160.493" y1="115.306" x2="160.493" y2="105.264"/>
	
		<line fill="none" stroke="#898989" stroke-width="0.5" stroke-miterlimit="10" x1="167.347" y1="115.306" x2="167.347" y2="105.264"/>
	<line fill="none" stroke="#898989" stroke-width="0.5" stroke-miterlimit="10" x1="174.2" y1="115.306" x2="174.2" y2="105.264"/>
	
		<line fill="none" stroke="#898989" stroke-width="0.5" stroke-miterlimit="10" x1="181.054" y1="115.306" x2="181.054" y2="105.264"/>
	
		<line fill="none" stroke="#898989" stroke-width="0.5" stroke-miterlimit="10" x1="139.932" y1="107.272" x2="181.054" y2="107.272"/>
	
		<line fill="none" stroke="#898989" stroke-width="0.5" stroke-miterlimit="10" x1="139.932" y1="109.281" x2="181.054" y2="109.281"/>
	
		<line fill="none" stroke="#898989" stroke-width="0.5" stroke-miterlimit="10" x1="139.932" y1="111.289" x2="181.054" y2="111.289"/>
	
		<line fill="none" stroke="#898989" stroke-width="0.5" stroke-miterlimit="10" x1="139.932" y1="113.297" x2="181.054" y2="113.297"/>
</g>
<g>
	
		<line fill="none" stroke="#898989" stroke-width="0.5" stroke-miterlimit="10" x1="139.932" y1="132.196" x2="181.054" y2="132.196"/>
	
		<line fill="none" stroke="#898989" stroke-width="0.5" stroke-miterlimit="10" x1="139.932" y1="122.154" x2="181.054" y2="122.154"/>
	
		<line fill="none" stroke="#898989" stroke-width="0.5" stroke-miterlimit="10" x1="139.932" y1="132.196" x2="139.932" y2="122.154"/>
	
		<line fill="none" stroke="#898989" stroke-width="0.5" stroke-miterlimit="10" x1="146.786" y1="132.196" x2="146.786" y2="122.154"/>
	
		<line fill="none" stroke="#898989" stroke-width="0.5" stroke-miterlimit="10" x1="153.639" y1="132.196" x2="153.639" y2="122.154"/>
	
		<line fill="none" stroke="#898989" stroke-width="0.5" stroke-miterlimit="10" x1="160.493" y1="132.196" x2="160.493" y2="122.154"/>
	
		<line fill="none" stroke="#898989" stroke-width="0.5" stroke-miterlimit="10" x1="167.347" y1="132.196" x2="167.347" y2="122.154"/>
	<line fill="none" stroke="#898989" stroke-width="0.5" stroke-miterlimit="10" x1="174.2" y1="132.196" x2="174.2" y2="122.154"/>
	
		<line fill="none" stroke="#898989" stroke-width="0.5" stroke-miterlimit="10" x1="181.054" y1="132.196" x2="181.054" y2="122.154"/>
	
		<line fill="none" stroke="#898989" stroke-width="0.5" stroke-miterlimit="10" x1="139.932" y1="124.163" x2="181.054" y2="124.163"/>
	
		<line fill="none" stroke="#898989" stroke-width="0.5" stroke-miterlimit="10" x1="139.932" y1="126.171" x2="181.054" y2="126.171"/>
	
		<line fill="none" stroke="#898989" stroke-width="0.5" stroke-miterlimit="10" x1="139.932" y1="128.179" x2="181.054" y2="128.179"/>
	
		<line fill="none" stroke="#898989" stroke-width="0.5" stroke-miterlimit="10" x1="139.932" y1="130.188" x2="181.054" y2="130.188"/>
</g>
<line fill="none" stroke="#231815" stroke-width="0.5" stroke-miterlimit="10" x1="163.92" y1="102.759" x2="178.902" y2="102.759"/>
<line fill="none" stroke="#231815" stroke-width="0.5" stroke-miterlimit="10" x1="141.92" y1="102.759" x2="156.902" y2="102.759"/>
<line fill="none" stroke="#231815" stroke-width="0.5" stroke-miterlimit="10" x1="133.5" y1="115.306" x2="133.5" y2="105.777"/>
<line fill="none" stroke="#231815" stroke-width="0.5" stroke-miterlimit="10" x1="133.5" y1="131.995" x2="133.5" y2="122.466"/>
<text transform="matrix(1 0 0 1 133.0874 104.7588)" font-family="'Arial-ItalicMT'" font-size="4">CG</text>
<g>
	<text transform="matrix(1 0 0 1 135.8398 108.5469)" font-family="'Arial-ItalicMT'" font-size="3.5">1</text>
	<text transform="matrix(1 0 0 1 135.353 114.7139)" font-family="'Arial-ItalicMT'" font-size="3.5">n</text>
	<text transform="matrix(0.583 0 0 0.583 137.2998 115.8794)" font-family="'Arial-ItalicMT'" font-size="3.5">1</text>
	<g>
		<text transform="matrix(0 -1 1 0 137.7407 112.1167)" fill="#231815" font-family="'ArialMT'" font-size="3.5">...</text>
	</g>
</g>
<g>
	<text transform="matrix(1 0 0 1 135.4932 125.0957)" font-family="'Arial-ItalicMT'" font-size="3.5">1</text>
	<text transform="matrix(1 0 0 1 134.4414 131.2627)" font-family="'Arial-ItalicMT'" font-size="3.5">n</text>
	<text transform="matrix(0.583 0 0 0.583 136.3877 132.4282)" font-family="'Arial-ItalicMT'" font-size="3.5">m</text>
	<g>
		<text transform="matrix(0 -1 1 0 137.394 128.6655)" fill="#231815" font-family="'ArialMT'" font-size="3.5">...</text>
	</g>
</g>
<g>
	<g>
		<line fill="none" stroke="#9FA0A0" stroke-miterlimit="10" x1="146.786" y1="81.207" x2="146.786" y2="85.623"/>
		<g>
			<polygon fill="#9FA0A0" points="145.304,84.5 146.786,85.129 148.267,84.5 146.786,88.011 			"/>
		</g>
	</g>
</g>
<text transform="matrix(1 0 0 1 54.4863 59.147)"><tspan x="0" y="0" font-family="'ArialMT'" font-size="6">CpG </tspan><tspan x="-8.339" y="7.2" font-family="'ArialMT'" font-size="6">methylation</tspan><tspan x="0.832" y="14.4" font-family="'ArialMT'" font-size="6">level</tspan></text>
<rect x="30.455" y="99.864" opacity="0.8" fill="#E83828" stroke="#231815" stroke-miterlimit="10" width="33.029" height="26.556"/>
<rect x="35.366" y="103.073" opacity="0.8" fill="#E83828" stroke="#231815" stroke-miterlimit="10" width="33.03" height="26.556"/>
<rect x="44.429" y="108.516" opacity="0.8" fill="#E83828" stroke="#231815" stroke-miterlimit="10" width="33.03" height="26.556"/>
<text transform="matrix(1 0 0 1 54.4863 116.3511)"><tspan x="0" y="0" font-family="'ArialMT'" font-size="6">CpG </tspan><tspan x="-8.339" y="7.2" font-family="'ArialMT'" font-size="6">methylation</tspan><tspan x="0.832" y="14.4" font-family="'ArialMT'" font-size="6">level</tspan></text>
</svg>
